<svg width="20" height="18" viewBox="0 0 20 18" fill="none" xmlns="http://www.w3.org/2000/svg">
<path id="Union" fill-rule="evenodd" clip-rule="evenodd" d="M18 2V4C19.1 4 20 5.79 20 8C20 10.21 19.1 12 18 12V13C18 14.1 17.1 15 16 15H4C2.9 15 2 14.1 2 13V12C0.9 12 0 10.21 0 8C0 5.79 0.9 4 2 4V2C2 0.9 2.9 0 4 0H16C17.1 0 18 0.9 18 2ZM5 7.5C5 8.33 5.67 9 6.5 9C7.33 9 8 8.33 8 7.5C8 6.67 7.33 6 6.5 6C5.67 6 5 6.67 5 7.5ZM12 7.5C12 8.33 12.67 9 13.5 9C14.33 9 15 8.33 15 7.5C15 6.67 14.33 6 13.5 6C12.67 6 12 6.67 12 7.5ZM17 16H3C3 17.1 3.9 18 5 18H15C16.1 18 17 17.1 17 16Z" fill="#7A7681"/>
</svg>
