<svg width="60" height="20" viewBox="0 0 60 20" fill="none" xmlns="http://www.w3.org/2000/svg">
<path d="M18.976 16.906V18.886H0.21V16.906H8.438V13.43H1.464V1.682H17.744V3.618H3.642V6.566H17.502V8.48H3.642V11.494H18.03V13.43H10.638V16.906H18.976ZM39.5881 11.868V13.628H20.8221V11.868H29.0941V9.888H22.1861V4.718H36.1121V2.936H22.1861V1.22H38.2461V6.39H24.3421V8.172H38.5101V9.888H31.2941V11.868H39.5881ZM24.3421 17.764H38.6201V19.568H22.1201V14.948H24.3421V17.764ZM47.8582 7.38C47.2129 8.216 46.3696 8.90533 45.3282 9.448C44.2869 9.99067 43.1136 10.3353 41.8082 10.482V8.7C43.2456 8.49467 44.4116 8.01067 45.3062 7.248C46.2009 6.47067 46.7362 5.50267 46.9122 4.344H42.0062V2.584H46.9782V0.669999H49.1782V2.584H54.0842V4.344H49.1342C49.0756 4.85733 48.9436 5.356 48.7382 5.84L54.3482 8.766L53.4682 10.35L47.8582 7.38ZM56.9442 5.114V0.999999H59.1222V10.636H56.9442V6.94H53.3362V5.114H56.9442ZM59.5842 17.874V19.546H43.1282V14.794H56.9662V13.342H43.0842V11.67H59.1222V16.4H45.2842V17.874H59.5842Z" fill="#EBE7ED"/>
</svg>
