<svg width="16" height="18" viewBox="0 0 16 18" fill="none" xmlns="http://www.w3.org/2000/svg">
<path id="Union" fill-rule="evenodd" clip-rule="evenodd" d="M0.999375 18H5.99625C6.54591 18 6.99562 17.55 6.99562 17C6.99562 16.45 6.54591 16 5.99625 16H1.99875V2H5.99625C6.54591 2 6.99562 1.55 6.99562 1C6.99562 0.45 6.54591 0 5.99625 0H0.999375C0.449719 0 0 0.45 0 1V17C0 17.55 0.449719 18 0.999375 18ZM12.4173 5.30664L15.7075 8.75568V8.76616C16.0975 9.17502 16.0975 9.83547 15.7075 10.2443L12.4173 13.6934C12.0272 14.1022 11.3972 14.1022 11.0072 13.6934C10.6172 13.2845 10.6172 12.624 11.0072 12.2152L12.5973 10.5483H6.00693C5.4569 10.5483 5.00688 10.0766 5.00688 9.5C5.00688 8.92341 5.4569 8.45166 6.00693 8.45166H12.5973L11.0072 6.7848C10.6172 6.37595 10.6172 5.71549 11.0072 5.30664C11.3972 4.89779 12.0272 4.89779 12.4173 5.30664Z" fill="#EBE7ED"/>
</svg>
