<svg width="24" height="24" viewBox="0 0 24 24" fill="none" xmlns="http://www.w3.org/2000/svg">
<path fill-rule="evenodd" clip-rule="evenodd" d="M5 3H9.5C10.6046 3 11.5 3.89543 11.5 5V9.5C11.5 10.6046 10.6046 11.5 9.5 11.5H5C3.89543 11.5 3 10.6046 3 9.5V5C3 3.89543 3.89543 3 5 3ZM14.5 3H19C20.1046 3 21 3.89543 21 5V9.5C21 10.6046 20.1046 11.5 19 11.5H14.5C13.3954 11.5 12.5 10.6046 12.5 9.5V5C12.5 3.89543 13.3954 3 14.5 3ZM9.5 12.5H5C3.89543 12.5 3 13.3954 3 14.5V19C3 20.1046 3.89543 21 5 21H9.5C10.6046 21 11.5 20.1046 11.5 19V14.5C11.5 13.3954 10.6046 12.5 9.5 12.5ZM14.5 12.5H19C20.1046 12.5 21 13.3954 21 14.5V19C21 20.1046 20.1046 21 19 21H14.5C13.3954 21 12.5 20.1046 12.5 19V14.5C12.5 13.3954 13.3954 12.5 14.5 12.5Z" fill="#996BFA"/>
</svg>
