<svg width="20" height="20" viewBox="0 0 20 20" fill="none" xmlns="http://www.w3.org/2000/svg">
<path fill-rule="evenodd" clip-rule="evenodd" d="M2.5 11.5C3.32843 11.5 4 10.8284 4 10C4 9.17157 3.32843 8.5 2.5 8.5C1.67157 8.5 1 9.17157 1 10C1 10.8284 1.67157 11.5 2.5 11.5ZM17.5 11.5C18.3284 11.5 19 10.8284 19 10C19 9.17157 18.3284 8.5 17.5 8.5C16.6716 8.5 16 9.17157 16 10C16 10.8284 16.6716 11.5 17.5 11.5ZM11.5 10C11.5 10.8284 10.8284 11.5 10 11.5C9.17157 11.5 8.5 10.8284 8.5 10C8.5 9.17157 9.17157 8.5 10 8.5C10.8284 8.5 11.5 9.17157 11.5 10Z" fill="#7A7681"/>
</svg>
