<svg width="13" height="20" viewBox="0 0 13 20" fill="none" xmlns="http://www.w3.org/2000/svg">
<path d="M7.48999 8.08553V3.40378L9.08002 4.99437C9.47002 5.38452 10.1 5.38452 10.49 4.99437C10.88 4.60422 10.88 3.97398 10.49 3.58384L7.20001 0.29261C6.81001 -0.0975366 6.17998 -0.0975366 5.78998 0.29261L2.5 3.58384C2.11 3.97398 2.11 4.60422 2.5 4.99437C2.89 5.38452 3.51997 5.38452 3.90997 4.99437L5.5 3.40378V8.08553C2.66 8.56571 0.5 11.0266 0.5 13.9977C0.5 17.309 3.19 20 6.5 20C9.81 20 12.5 17.309 12.5 13.9977C12.5 11.0266 10.34 8.56571 7.5 8.08553H7.48999ZM6.48999 17.9992C4.27999 17.9992 2.48999 16.2086 2.48999 13.9977C2.48999 11.7869 4.27999 9.99625 6.48999 9.99625C8.69999 9.99625 10.49 11.7869 10.49 13.9977C10.49 16.2086 8.69999 17.9992 6.48999 17.9992Z" fill="#996BFA"/>
</svg>
