<svg width="18" height="4" viewBox="0 0 18 4" fill="none" xmlns="http://www.w3.org/2000/svg">
<path id="Union" fill-rule="evenodd" clip-rule="evenodd" d="M1.5 3.5C2.32843 3.5 3 2.82843 3 2C3 1.17157 2.32843 0.5 1.5 0.5C0.671573 0.5 0 1.17157 0 2C0 2.82843 0.671573 3.5 1.5 3.5ZM16.5 3.5C17.3284 3.5 18 2.82843 18 2C18 1.17157 17.3284 0.5 16.5 0.5C15.6716 0.5 15 1.17157 15 2C15 2.82843 15.6716 3.5 16.5 3.5ZM10.5 2C10.5 2.82843 9.82843 3.5 9 3.5C8.17157 3.5 7.5 2.82843 7.5 2C7.5 1.17157 8.17157 0.5 9 0.5C9.82843 0.5 10.5 1.17157 10.5 2Z" fill="#EBE7ED"/>
</svg>
