<svg width="16" height="17" viewBox="0 0 16 17" fill="none" xmlns="http://www.w3.org/2000/svg">
<path fill-rule="evenodd" clip-rule="evenodd" d="M3.33324 14.5H6.66449C7.03093 14.5 7.33074 14.2 7.33074 13.8333C7.33074 13.4667 7.03093 13.1667 6.66449 13.1667H3.99949V3.83333H6.66449C7.03093 3.83333 7.33074 3.53333 7.33074 3.16667C7.33074 2.8 7.03093 2.5 6.66449 2.5H3.33324C2.9668 2.5 2.66699 2.8 2.66699 3.16667V13.8333C2.66699 14.2 2.9668 14.5 3.33324 14.5ZM10.9451 6.03776L13.1386 8.33712V8.34411C13.3986 8.61668 13.3986 9.05698 13.1386 9.32955L10.9451 11.6289C10.6851 11.9015 10.2651 11.9015 10.0051 11.6289C9.74509 11.3563 9.74509 10.916 10.0051 10.6435L11.0651 9.53223H6.67159C6.3049 9.53223 6.00488 9.21772 6.00488 8.83333C6.00488 8.44894 6.3049 8.13444 6.67159 8.13444H11.0651L10.0051 7.0232C9.74509 6.75063 9.74509 6.31033 10.0051 6.03776C10.2651 5.76519 10.6851 5.76519 10.9451 6.03776Z" fill="#7A7681"/>
</svg>
