<svg width="13" height="20" viewBox="0 0 13 20" fill="none" xmlns="http://www.w3.org/2000/svg">
<path d="M10.5 14H7.5V11.91C10.34 11.43 12.5 8.97 12.5 6C12.5 2.69 9.81 0 6.5 0C3.19 0 0.5 2.69 0.5 6C0.5 8.97 2.66 11.43 5.5 11.91V14H2.5C1.95 14 1.5 14.45 1.5 15C1.5 15.55 1.95 16 2.5 16H5.5V19C5.5 19.55 5.95 20 6.5 20C7.05 20 7.5 19.55 7.5 19V16H10.5C11.05 16 11.5 15.55 11.5 15C11.5 14.45 11.05 14 10.5 14ZM2.5 6C2.5 3.79 4.29 2 6.5 2C8.71 2 10.5 3.79 10.5 6C10.5 8.21 8.71 10 6.5 10C4.29 10 2.5 8.21 2.5 6Z" fill="#996BFA"/>
</svg>
