<svg width="16" height="16" viewBox="0 0 16 16" fill="none" xmlns="http://www.w3.org/2000/svg">
<g clip-path="url(#clip0_4812_20928)">
<path d="M15.6811 4.12364C15.5906 3.78325 15.4123 3.47258 15.1641 3.22274C14.9159 2.9729 14.6063 2.79264 14.2665 2.7C13.0156 2.36364 8.01562 2.36364 8.01562 2.36364C8.01562 2.36364 3.01563 2.36364 1.76472 2.7C1.42491 2.79264 1.1154 2.9729 0.86715 3.22274C0.618902 3.47258 0.440629 3.78325 0.35017 4.12364C0.015625 5.38 0.015625 8 0.015625 8C0.015625 8 0.015625 10.62 0.35017 11.8764C0.440629 12.2168 0.618902 12.5274 0.86715 12.7773C1.1154 13.0271 1.42491 13.2074 1.76472 13.3C3.01563 13.6364 8.01562 13.6364 8.01562 13.6364C8.01562 13.6364 13.0156 13.6364 14.2665 13.3C14.6063 13.2074 14.9159 13.0271 15.1641 12.7773C15.4123 12.5274 15.5906 12.2168 15.6811 11.8764C16.0156 10.62 16.0156 8 16.0156 8C16.0156 8 16.0156 5.38 15.6811 4.12364Z" fill="#7A7681"/>
<path d="M6.37891 10.3791V5.62093L10.5607 8.00002L6.37891 10.3791Z" fill="#161416"/>
</g>
<defs>
<clipPath id="clip0_4812_20928">
<rect width="16" height="16" fill="white"/>
</clipPath>
</defs>
</svg>
